<svg width="392" height="114" viewBox="0 0 392 114" fill="none" xmlns="http://www.w3.org/2000/svg">
<path d="M75.6436 92.3564H69.4327V108.786H68.7999V92.3564H62.5889V91.7236H75.6436V92.3564Z" fill="#346373"/>
<path d="M78.9366 99.0595C79.3506 98.0751 79.96 97.2978 80.7647 96.7275C81.5694 96.1572 82.46 95.872 83.4366 95.872C84.796 95.872 85.8038 96.2587 86.46 97.0322C87.1241 97.7978 87.46 98.9579 87.4678 100.513V108.786H86.835V100.489C86.8272 99.1298 86.5499 98.1259 86.003 97.4775C85.4561 96.8212 84.5889 96.4931 83.4014 96.4931C82.3077 96.4931 81.3585 96.8837 80.5538 97.665C79.7569 98.4384 79.2178 99.4384 78.9366 100.665V108.786H78.3038V90.7861H78.9366V99.0595Z" fill="#346373"/>
<path d="M95.9874 109.02C94.9639 109.02 94.0225 108.747 93.1631 108.2C92.3116 107.645 91.6436 106.888 91.1592 105.927C90.6749 104.966 90.4327 103.899 90.4327 102.727V102.2C90.4327 101.028 90.6671 99.954 91.1358 98.9775C91.6046 98.0009 92.2491 97.2392 93.0694 96.6923C93.8897 96.1454 94.7842 95.872 95.753 95.872C97.1671 95.872 98.3233 96.3759 99.2217 97.3837C100.12 98.3915 100.569 99.7158 100.569 101.356V102.024H91.0655V102.716C91.0655 103.747 91.2803 104.704 91.71 105.587C92.1475 106.462 92.7452 107.149 93.503 107.649C94.2686 108.149 95.0967 108.399 95.9874 108.399C96.8389 108.399 97.5616 108.259 98.1553 107.977C98.7569 107.688 99.2881 107.247 99.7491 106.653L100.194 106.97C99.2491 108.337 97.8467 109.02 95.9874 109.02ZM95.753 96.5048C94.5186 96.5048 93.4717 96.9658 92.6124 97.8876C91.753 98.8017 91.2491 99.9697 91.1006 101.392H99.9366V101.239C99.9366 100.38 99.753 99.5829 99.3858 98.8486C99.0264 98.1064 98.5264 97.5322 97.8858 97.1259C97.253 96.7119 96.5421 96.5048 95.753 96.5048Z" fill="#346373"/>
<path d="M119.835 104.696C119.835 103.97 119.663 103.356 119.319 102.856C118.983 102.349 118.448 101.903 117.714 101.52C116.987 101.13 115.886 100.731 114.409 100.325C112.933 99.9189 111.823 99.5087 111.081 99.0947C110.347 98.6806 109.808 98.2001 109.464 97.6533C109.12 97.1064 108.948 96.4423 108.948 95.6611C108.948 94.4189 109.472 93.415 110.519 92.6494C111.565 91.8759 112.929 91.4892 114.608 91.4892C115.702 91.4892 116.683 91.704 117.55 92.1337C118.425 92.5556 119.101 93.1533 119.577 93.9267C120.054 94.6923 120.292 95.5595 120.292 96.5283H119.659C119.659 95.2548 119.19 94.204 118.253 93.3759C117.315 92.54 116.101 92.122 114.608 92.122C113.108 92.122 111.894 92.4579 110.964 93.1298C110.042 93.7939 109.581 94.6298 109.581 95.6376C109.581 96.6611 109.983 97.4853 110.788 98.1103C111.593 98.7353 112.921 99.29 114.773 99.7744C116.624 100.251 117.98 100.806 118.839 101.438C119.933 102.243 120.48 103.321 120.48 104.673C120.48 105.532 120.237 106.294 119.753 106.958C119.269 107.614 118.581 108.122 117.69 108.481C116.8 108.841 115.8 109.02 114.69 109.02C113.456 109.02 112.347 108.817 111.362 108.411C110.378 107.997 109.636 107.411 109.136 106.653C108.644 105.895 108.398 105.001 108.398 103.97H109.03C109.03 105.368 109.554 106.454 110.601 107.227C111.648 108.001 113.011 108.388 114.69 108.388C116.183 108.388 117.413 108.048 118.382 107.368C119.351 106.681 119.835 105.79 119.835 104.696Z" fill="#346373"/>
<path d="M133.183 102.563C133.183 104.54 132.757 106.11 131.905 107.274C131.054 108.438 129.894 109.02 128.425 109.02C127.464 109.02 126.608 108.825 125.858 108.435C125.108 108.044 124.523 107.505 124.101 106.817V113.661H123.468V96.1064H124.101V98.3681C124.538 97.5634 125.128 96.9462 125.87 96.5165C126.612 96.0869 127.456 95.872 128.401 95.872C129.886 95.872 131.054 96.4423 131.905 97.5829C132.757 98.7158 133.183 100.31 133.183 102.364V102.563ZM132.538 102.317C132.538 100.497 132.175 99.0751 131.448 98.0517C130.73 97.0204 129.718 96.5048 128.413 96.5048C127.351 96.5048 126.448 96.7822 125.706 97.3369C124.964 97.8837 124.429 98.6728 124.101 99.704V105.634C124.429 106.509 124.964 107.188 125.706 107.673C126.456 108.149 127.366 108.388 128.437 108.388C129.733 108.388 130.741 107.872 131.46 106.841C132.179 105.81 132.538 104.302 132.538 102.317Z" fill="#346373"/>
<path d="M137.401 108.786H136.769V96.1064H137.401V108.786ZM136.44 92.1454C136.44 91.9658 136.503 91.8134 136.628 91.6884C136.753 91.5556 136.905 91.4892 137.085 91.4892C137.265 91.4892 137.417 91.5556 137.542 91.6884C137.675 91.8134 137.741 91.9658 137.741 92.1454C137.741 92.3251 137.675 92.4775 137.542 92.6025C137.417 92.7275 137.265 92.79 137.085 92.79C136.905 92.79 136.753 92.7275 136.628 92.6025C136.503 92.4775 136.44 92.3251 136.44 92.1454Z" fill="#346373"/>
<path d="M147.175 96.5634L146.355 96.4931C145.276 96.4931 144.374 96.8447 143.648 97.5478C142.921 98.2431 142.444 99.2197 142.218 100.477V108.786H141.585V96.1064H142.218V98.7431C142.562 97.8603 143.077 97.1611 143.765 96.6454C144.452 96.1298 145.315 95.872 146.355 95.872C146.722 95.872 147.019 95.915 147.245 96.0009L147.175 96.5634Z" fill="#346373"/>
<path d="M150.386 108.786H149.753V96.1064H150.386V108.786ZM149.425 92.1454C149.425 91.9658 149.487 91.8134 149.612 91.6884C149.737 91.5556 149.89 91.4892 150.069 91.4892C150.249 91.4892 150.401 91.5556 150.526 91.6884C150.659 91.8134 150.726 91.9658 150.726 92.1454C150.726 92.3251 150.659 92.4775 150.526 92.6025C150.401 92.7275 150.249 92.79 150.069 92.79C149.89 92.79 149.737 92.7275 149.612 92.6025C149.487 92.4775 149.425 92.3251 149.425 92.1454Z" fill="#346373"/>
<path d="M155.987 92.6845V96.1064H158.87V96.7509H155.987V105.751C155.987 106.649 156.132 107.313 156.421 107.743C156.718 108.173 157.21 108.388 157.898 108.388C158.241 108.388 158.659 108.352 159.151 108.282L159.257 108.88C158.999 108.974 158.558 109.02 157.933 109.02C157.011 109.02 156.351 108.767 155.952 108.259C155.554 107.743 155.351 106.935 155.343 105.833V96.7509H152.999V96.1064H155.343V92.6845H155.987Z" fill="#346373"/>
<path d="M166.968 102.2C166.968 100.989 167.198 99.9033 167.659 98.9423C168.128 97.9736 168.784 97.2197 169.628 96.6806C170.48 96.1415 171.44 95.872 172.511 95.872C173.573 95.872 174.526 96.1337 175.37 96.6572C176.214 97.1806 176.87 97.9228 177.339 98.8837C177.815 99.8447 178.058 100.927 178.065 102.13V102.692C178.065 103.911 177.835 105.001 177.374 105.962C176.913 106.923 176.257 107.673 175.405 108.212C174.562 108.751 173.605 109.02 172.534 109.02C171.464 109.02 170.503 108.755 169.651 108.224C168.808 107.692 168.151 106.95 167.683 105.997C167.214 105.036 166.976 103.958 166.968 102.763V102.2ZM167.601 102.692C167.601 103.747 167.808 104.716 168.222 105.599C168.644 106.474 169.226 107.157 169.968 107.649C170.718 108.142 171.573 108.388 172.534 108.388C173.98 108.388 175.155 107.845 176.062 106.759C176.976 105.673 177.433 104.274 177.433 102.563V102.2C177.433 101.161 177.222 100.2 176.8 99.3173C176.378 98.4345 175.792 97.747 175.042 97.2548C174.3 96.7548 173.456 96.5048 172.511 96.5048C171.065 96.5048 169.886 97.0556 168.972 98.1572C168.058 99.2587 167.601 100.645 167.601 102.317V102.692Z" fill="#346373"/>
<path d="M182.108 108.786V96.7509H179.905V96.1064H182.108V94.2548C182.116 93.0829 182.409 92.1728 182.987 91.5244C183.573 90.8681 184.386 90.54 185.425 90.54C186.003 90.54 186.503 90.6064 186.925 90.7392L186.831 91.3486C186.425 91.2314 185.96 91.1728 185.437 91.1728C184.601 91.1728 183.94 91.4462 183.456 91.9931C182.98 92.5322 182.741 93.3017 182.741 94.3017V96.1064H186.093V96.7509H182.741V108.786H182.108Z" fill="#346373"/>
<path d="M205.675 92.3564H199.464V108.786H198.831V92.3564H192.62V91.7236H205.675V92.3564Z" fill="#346373"/>
<path d="M213.034 96.5634L212.214 96.4931C211.136 96.4931 210.233 96.8447 209.507 97.5478C208.78 98.2431 208.304 99.2197 208.077 100.477V108.786H207.444V96.1064H208.077V98.7431C208.421 97.8603 208.937 97.1611 209.624 96.6454C210.312 96.1298 211.175 95.872 212.214 95.872C212.581 95.872 212.878 95.915 213.105 96.0009L213.034 96.5634Z" fill="#346373"/>
<path d="M223.956 108.786V106.735C223.581 107.438 223.034 107.997 222.315 108.411C221.597 108.817 220.687 109.02 219.585 109.02C218.202 109.02 217.163 108.618 216.468 107.813C215.78 107.001 215.429 105.821 215.413 104.274V96.1064H216.046V104.298C216.062 105.642 216.366 106.661 216.96 107.356C217.554 108.044 218.421 108.388 219.562 108.388C220.773 108.388 221.757 108.102 222.515 107.532C223.273 106.962 223.753 106.126 223.956 105.024V96.1064H224.601V108.786H223.956Z" fill="#346373"/>
<path d="M233.144 109.02C232.12 109.02 231.179 108.747 230.319 108.2C229.468 107.645 228.8 106.888 228.315 105.927C227.831 104.966 227.589 103.899 227.589 102.727V102.2C227.589 101.028 227.823 99.954 228.292 98.9775C228.761 98.0009 229.405 97.2392 230.226 96.6923C231.046 96.1454 231.94 95.872 232.909 95.872C234.323 95.872 235.48 96.3759 236.378 97.3837C237.276 98.3915 237.726 99.7158 237.726 101.356V102.024H228.222V102.716C228.222 103.747 228.437 104.704 228.866 105.587C229.304 106.462 229.901 107.149 230.659 107.649C231.425 108.149 232.253 108.399 233.144 108.399C233.995 108.399 234.718 108.259 235.312 107.977C235.913 107.688 236.444 107.247 236.905 106.653L237.351 106.97C236.405 108.337 235.003 109.02 233.144 109.02ZM232.909 96.5048C231.675 96.5048 230.628 96.9658 229.769 97.8876C228.909 98.8017 228.405 99.9697 228.257 101.392H237.093V101.239C237.093 100.38 236.909 99.5829 236.542 98.8486C236.183 98.1064 235.683 97.5322 235.042 97.1259C234.409 96.7119 233.698 96.5048 232.909 96.5048Z" fill="#346373"/>
<path d="M256.148 100.395H247.405V108.786H246.773V91.7236H257.343V92.3564H247.405V99.7392H256.148V100.395Z" fill="#346373"/>
<path d="M264.503 109.02C263.48 109.02 262.538 108.747 261.679 108.2C260.827 107.645 260.159 106.888 259.675 105.927C259.19 104.966 258.948 103.899 258.948 102.727V102.2C258.948 101.028 259.183 99.954 259.651 98.9775C260.12 98.0009 260.765 97.2392 261.585 96.6923C262.405 96.1454 263.3 95.872 264.269 95.872C265.683 95.872 266.839 96.3759 267.737 97.3837C268.636 98.3915 269.085 99.7158 269.085 101.356V102.024H259.581V102.716C259.581 103.747 259.796 104.704 260.226 105.587C260.663 106.462 261.261 107.149 262.019 107.649C262.784 108.149 263.612 108.399 264.503 108.399C265.355 108.399 266.077 108.259 266.671 107.977C267.273 107.688 267.804 107.247 268.265 106.653L268.71 106.97C267.765 108.337 266.362 109.02 264.503 109.02ZM264.269 96.5048C263.034 96.5048 261.987 96.9658 261.128 97.8876C260.269 98.8017 259.765 99.9697 259.616 101.392H268.452V101.239C268.452 100.38 268.269 99.5829 267.901 98.8486C267.542 98.1064 267.042 97.5322 266.401 97.1259C265.769 96.7119 265.058 96.5048 264.269 96.5048Z" fill="#346373"/>
<path d="M276.597 109.02C275.573 109.02 274.632 108.747 273.773 108.2C272.921 107.645 272.253 106.888 271.769 105.927C271.284 104.966 271.042 103.899 271.042 102.727V102.2C271.042 101.028 271.276 99.954 271.745 98.9775C272.214 98.0009 272.858 97.2392 273.679 96.6923C274.499 96.1454 275.394 95.872 276.362 95.872C277.776 95.872 278.933 96.3759 279.831 97.3837C280.73 98.3915 281.179 99.7158 281.179 101.356V102.024H271.675V102.716C271.675 103.747 271.89 104.704 272.319 105.587C272.757 106.462 273.355 107.149 274.112 107.649C274.878 108.149 275.706 108.399 276.597 108.399C277.448 108.399 278.171 108.259 278.765 107.977C279.366 107.688 279.898 107.247 280.358 106.653L280.804 106.97C279.858 108.337 278.456 109.02 276.597 109.02ZM276.362 96.5048C275.128 96.5048 274.081 96.9658 273.222 97.8876C272.362 98.8017 271.858 99.9697 271.71 101.392H280.546V101.239C280.546 100.38 280.362 99.5829 279.995 98.8486C279.636 98.1064 279.136 97.5322 278.495 97.1259C277.862 96.7119 277.151 96.5048 276.362 96.5048Z" fill="#346373"/>
<path d="M284.917 108.786H284.284V90.7861H284.917V108.786Z" fill="#346373"/>
<path d="M289.886 108.786H289.253V96.1064H289.886V108.786ZM288.925 92.1454C288.925 91.9658 288.987 91.8134 289.112 91.6884C289.237 91.5556 289.39 91.4892 289.569 91.4892C289.749 91.4892 289.901 91.5556 290.026 91.6884C290.159 91.8134 290.226 91.9658 290.226 92.1454C290.226 92.3251 290.159 92.4775 290.026 92.6025C289.901 92.7275 289.749 92.79 289.569 92.79C289.39 92.79 289.237 92.7275 289.112 92.6025C288.987 92.4775 288.925 92.3251 288.925 92.1454Z" fill="#346373"/>
<path d="M294.702 99.0595C295.116 98.0751 295.726 97.2978 296.53 96.7275C297.335 96.1572 298.226 95.872 299.202 95.872C300.562 95.872 301.569 96.2587 302.226 97.0322C302.89 97.7978 303.226 98.9579 303.233 100.513V108.786H302.601V100.489C302.593 99.1298 302.316 98.1259 301.769 97.4775C301.222 96.8212 300.355 96.4931 299.167 96.4931C298.073 96.4931 297.124 96.8837 296.319 97.665C295.523 98.4384 294.983 99.4384 294.702 100.665V108.786H294.069V96.1064H294.702V99.0595Z" fill="#346373"/>
<path d="M306.597 102.317C306.597 100.294 307.023 98.7158 307.874 97.5829C308.726 96.4423 309.894 95.872 311.378 95.872C312.323 95.872 313.163 96.0908 313.898 96.5283C314.632 96.9579 315.222 97.5908 315.667 98.4267V96.1064H316.312V108.563C316.312 110.235 315.882 111.54 315.023 112.477C314.163 113.423 312.995 113.895 311.519 113.895C310.667 113.895 309.886 113.712 309.175 113.345C308.472 112.977 307.87 112.45 307.37 111.763L307.815 111.341C308.308 111.966 308.847 112.442 309.433 112.77C310.019 113.106 310.706 113.274 311.495 113.274C312.8 113.274 313.815 112.876 314.542 112.079C315.269 111.29 315.644 110.173 315.667 108.727V106.782C315.23 107.501 314.636 108.056 313.886 108.446C313.144 108.829 312.3 109.02 311.355 109.02C309.886 109.02 308.726 108.438 307.874 107.274C307.023 106.11 306.597 104.513 306.597 102.481V102.317ZM307.241 102.563C307.241 104.376 307.601 105.802 308.319 106.841C309.038 107.872 310.046 108.388 311.343 108.388C312.413 108.388 313.323 108.142 314.073 107.649C314.823 107.149 315.355 106.45 315.667 105.552V99.7978C314.98 97.6025 313.546 96.5048 311.366 96.5048C310.062 96.5048 309.046 97.0165 308.319 98.04C307.601 99.0634 307.241 100.571 307.241 102.563Z" fill="#346373"/>
<path d="M328.183 105.681C328.183 104.142 326.87 103.095 324.245 102.54C322.667 102.204 321.569 101.774 320.952 101.251C320.335 100.72 320.026 99.9931 320.026 99.0712C320.026 98.1415 320.417 97.3759 321.198 96.7744C321.987 96.1728 323.011 95.872 324.269 95.872C325.636 95.872 326.733 96.2001 327.562 96.8564C328.39 97.5048 328.804 98.3837 328.804 99.4931H328.159C328.159 98.6415 327.8 97.9306 327.081 97.3603C326.362 96.79 325.425 96.5048 324.269 96.5048C323.159 96.5048 322.28 96.747 321.632 97.2314C320.983 97.7158 320.659 98.3212 320.659 99.0478C320.659 99.6181 320.78 100.067 321.023 100.395C321.265 100.716 321.659 101.009 322.206 101.274C322.753 101.532 323.55 101.782 324.597 102.024C325.644 102.267 326.472 102.552 327.081 102.88C327.69 103.208 328.132 103.599 328.405 104.052C328.679 104.497 328.815 105.044 328.815 105.692C328.815 106.692 328.405 107.497 327.585 108.106C326.765 108.716 325.69 109.02 324.362 109.02C322.94 109.02 321.792 108.7 320.917 108.06C320.05 107.411 319.616 106.579 319.616 105.563H320.249C320.312 106.454 320.702 107.149 321.421 107.649C322.148 108.142 323.128 108.388 324.362 108.388C325.495 108.388 326.413 108.126 327.116 107.602C327.827 107.071 328.183 106.431 328.183 105.681Z" fill="#346373"/>
<path d="M8.01003 68.94C8.91003 68.04 9.36001 66.96 9.36001 65.61V45.09C9.36001 44.37 9.54003 43.74 10.08 43.2L13.59 39.69C14.13 39.15 14.85 38.88 15.66 38.88C16.47 38.97 17.19 39.33 17.64 40.05L38.61 68.31C39.51 69.66 40.77 70.29 42.48 70.29C43.65 70.29 44.64 69.84 45.45 68.94C46.17 68.04 46.62 66.96 46.62 65.7C46.62 64.62 46.26 63.72 45.72 62.82L23.67 32.85C23.22 32.31 23.04 31.77 23.13 31.05C23.22 30.42 23.4 29.88 23.94 29.34L45.27 7.92C46.35 6.84 46.98 5.49 46.98 3.87C46.98 2.79 46.62 1.89 45.9 1.17C45.18 0.449996 44.19 0 43.02 0C42.21 0 41.58 0.179996 41.04 0.449996C40.5 0.719996 39.78 1.26 39.15 1.89L13.95 27.09C13.05 27.99 12.06 28.17 10.98 27.72C9.90003 27.27 9.36001 26.37 9.36001 25.2V4.68C9.36001 3.42 8.91003 2.25 8.01003 1.35C7.11002 0.449997 5.94001 0 4.68002 0C3.33001 0 2.25002 0.449997 1.35002 1.35C0.450021 2.34 0 3.42 0 4.68V65.61C0 66.96 0.450021 68.04 1.35002 68.94C2.25002 69.84 3.33001 70.29 4.68002 70.29C5.94001 70.29 7.11002 69.84 8.01003 68.94V68.94Z" fill="#346373"/>
<path d="M100.838 45.72C100.838 41.13 99.668 36.81 97.508 33.03C95.348 29.25 92.378 26.19 88.598 24.03C84.818 21.87 80.678 20.7 76.088 20.7C71.408 20.7 67.178 21.87 63.398 24.03C59.618 26.19 56.648 29.25 54.488 33.03C52.328 36.81 51.248 41.04 51.248 45.72C51.248 50.4 52.238 54.72 54.218 58.5C56.198 62.28 58.988 65.25 62.498 67.41C66.098 69.66 69.968 70.74 74.288 70.74H75.008H96.518C97.688 70.74 98.678 70.29 99.578 69.48C100.388 68.67 100.838 67.68 100.838 66.42V65.79V45.72ZM62.138 54.36C60.698 51.84 60.068 48.96 60.068 45.72C60.068 42.57 60.698 39.69 62.138 37.08C63.578 34.56 65.468 32.49 67.898 31.05C70.328 29.61 73.028 28.8 76.088 28.8C79.058 28.8 81.758 29.61 84.188 31.05C86.618 32.49 88.508 34.56 89.948 37.08C91.298 39.69 92.018 42.57 92.018 45.72C92.018 48.96 91.298 51.84 89.948 54.36C88.508 56.88 86.618 58.95 84.188 60.39C81.758 61.83 79.058 62.55 76.088 62.55C73.028 62.55 70.328 61.83 67.898 60.39C65.468 58.95 63.578 56.88 62.138 54.36V54.36Z" fill="#3C6573"/>
<path d="M114.048 1.26C113.148 2.16 112.788 3.24 112.788 4.5V53.64C112.788 56.88 113.328 59.76 114.498 62.28C115.578 64.8 117.198 66.78 119.268 68.22C121.338 69.66 123.678 70.29 126.288 70.29H126.468C128.268 70.29 129.708 69.93 130.878 69.03C131.958 68.22 132.588 67.14 132.588 65.79C132.588 64.53 132.138 63.45 131.418 62.55C130.698 61.74 129.708 61.29 128.538 61.29H126.288C124.938 61.29 123.858 60.57 123.048 59.13C122.148 57.69 121.788 55.89 121.788 53.64V4.5C121.788 3.24 121.338 2.16 120.528 1.26C119.628 0.449999 118.548 0 117.288 0C115.938 0 114.858 0.449999 114.048 1.26V1.26Z" fill="#456773"/>
<path d="M186.092 45.72C186.092 41.13 184.922 36.81 182.762 33.03C180.602 29.25 177.632 26.19 173.852 24.03C170.072 21.87 165.932 20.7 161.342 20.7C156.662 20.7 152.432 21.87 148.652 24.03C144.872 26.19 141.902 29.25 139.742 33.03C137.582 36.81 136.502 41.04 136.502 45.72C136.502 50.4 137.492 54.72 139.472 58.5C141.452 62.28 144.242 65.25 147.752 67.41C151.352 69.66 155.222 70.74 159.542 70.74H160.262H181.772C182.942 70.74 183.932 70.29 184.832 69.48C185.642 68.67 186.092 67.68 186.092 66.42V65.79V45.72ZM147.392 54.36C145.952 51.84 145.322 48.96 145.322 45.72C145.322 42.57 145.952 39.69 147.392 37.08C148.832 34.56 150.722 32.49 153.152 31.05C155.582 29.61 158.282 28.8 161.342 28.8C164.312 28.8 167.012 29.61 169.442 31.05C171.872 32.49 173.762 34.56 175.202 37.08C176.552 39.69 177.272 42.57 177.272 45.72C177.272 48.96 176.552 51.84 175.202 54.36C173.762 56.88 171.872 58.95 169.442 60.39C167.012 61.83 164.312 62.55 161.342 62.55C158.282 62.55 155.582 61.83 153.152 60.39C150.722 58.95 148.832 56.88 147.392 54.36V54.36Z" fill="#4E6973"/>
<path d="M246.912 45.72C246.912 41.13 245.742 36.81 243.582 33.03C241.422 29.25 238.452 26.19 234.672 24.03C230.892 21.87 226.752 20.7 222.162 20.7C217.482 20.7 213.252 21.87 209.472 24.03C205.692 26.19 202.722 29.25 200.562 33.03C198.402 36.81 197.322 41.04 197.322 45.72C197.322 50.4 198.312 54.72 200.292 58.5C202.272 62.28 205.062 65.25 208.572 67.41C212.172 69.66 216.042 70.74 220.362 70.74H221.082H242.592C243.762 70.74 244.752 70.29 245.652 69.48C246.462 68.67 246.912 67.68 246.912 66.42V65.79V45.72ZM208.212 54.36C206.772 51.84 206.142 48.96 206.142 45.72C206.142 42.57 206.772 39.69 208.212 37.08C209.652 34.56 211.542 32.49 213.972 31.05C216.402 29.61 219.102 28.8 222.162 28.8C225.132 28.8 227.832 29.61 230.262 31.05C232.692 32.49 234.582 34.56 236.022 37.08C237.372 39.69 238.092 42.57 238.092 45.72C238.092 48.96 237.372 51.84 236.022 54.36C234.582 56.88 232.692 58.95 230.262 60.39C227.832 61.83 225.132 62.55 222.162 62.55C219.102 62.55 216.402 61.83 213.972 60.39C211.542 58.95 209.652 56.88 208.212 54.36V54.36Z" fill="#566B73"/>
<path d="M262.732 22.86V30.6V52.83C262.732 56.16 263.362 59.13 264.802 61.74C266.152 64.44 268.043 66.51 270.473 68.04C272.903 69.57 275.602 70.29 278.572 70.29H280.193C281.722 70.29 282.982 69.93 283.972 69.03C284.962 68.22 285.502 67.14 285.502 65.79C285.502 64.53 285.053 63.45 284.333 62.55C283.613 61.74 282.712 61.29 281.632 61.29H278.572C276.592 61.29 274.972 60.48 273.712 58.86C272.362 57.24 271.732 55.26 271.732 52.83V30.6H279.382C280.642 30.6 281.632 30.24 282.442 29.52C283.163 28.8 283.613 27.9 283.613 26.82C283.613 25.65 283.163 24.66 282.442 23.94C281.632 23.22 280.642 22.86 279.382 22.86H271.732V9.89999C271.732 8.63999 271.283 7.55999 270.473 6.65999C269.573 5.84999 268.493 5.39999 267.233 5.39999C265.883 5.39999 264.802 5.84999 263.992 6.65999C263.092 7.55999 262.732 8.63999 262.732 9.89999V22.86Z" fill="#5F6E73"/>
<path d="M336.388 23.22C335.938 22.59 335.308 22.05 334.588 21.69C333.958 21.42 333.238 21.24 332.518 21.24C331.708 21.24 330.988 21.51 330.268 21.87C329.548 22.23 329.098 22.77 328.738 23.49L313.258 57.24L297.598 23.49C297.238 22.77 296.698 22.23 296.068 21.87C295.348 21.51 294.718 21.24 293.998 21.24C293.278 21.24 292.648 21.42 292.108 21.69C290.398 22.59 289.588 23.76 289.588 25.38C289.588 26.01 289.678 26.55 289.948 27L309.028 67.23C309.568 68.31 310.108 69.12 310.828 69.57C311.458 70.02 312.268 70.2 313.348 70.2C315.148 70.2 316.588 69.21 317.488 67.23L336.568 27C336.838 26.46 337.018 25.83 337.018 25.29C337.018 24.57 336.748 23.85 336.388 23.22V23.22Z" fill="#677073"/>
<path d="M391.404 45.72C391.404 41.13 390.234 36.81 388.074 33.03C385.914 29.25 382.944 26.19 379.164 24.03C375.384 21.87 371.244 20.7 366.654 20.7C361.974 20.7 357.744 21.87 353.964 24.03C350.184 26.19 347.214 29.25 345.054 33.03C342.894 36.81 341.814 41.04 341.814 45.72C341.814 50.4 342.804 54.72 344.784 58.5C346.764 62.28 349.554 65.25 353.064 67.41C356.664 69.66 360.534 70.74 364.854 70.74H365.574H387.084C388.254 70.74 389.244 70.29 390.144 69.48C390.954 68.67 391.404 67.68 391.404 66.42V65.79V45.72ZM352.704 54.36C351.264 51.84 350.634 48.96 350.634 45.72C350.634 42.57 351.264 39.69 352.704 37.08C354.144 34.56 356.034 32.49 358.464 31.05C360.894 29.61 363.594 28.8 366.654 28.8C369.624 28.8 372.324 29.61 374.754 31.05C377.184 32.49 379.074 34.56 380.514 37.08C381.864 39.69 382.584 42.57 382.584 45.72C382.584 48.96 381.864 51.84 380.514 54.36C379.074 56.88 377.184 58.95 374.754 60.39C372.324 61.83 369.624 62.55 366.654 62.55C363.594 62.55 360.894 61.83 358.464 60.39C356.034 58.95 354.144 56.88 352.704 54.36V54.36Z" fill="#707273"/>
</svg>
